# xmcd
#
# Track frame offsets:
#   150
#   9452
#   14840
#   25977
#   36027
#   43180
#   48125
#   61860
#   67407
#   76705
#   93310
#   101647
#   109345
#   118430
#
# Disc length: 1689 seconds
#
# Revision: 0
# Processed by: cddbd v1.5.2PL0 Copyright (c) Steve Scherf et al.
# Submitted via: uFREEDB ActiveX Control 1.5
#
DISCID=bd06970e
DTITLE=As Favoritas do Rodeio Internacional - As Favoritas do Rodeio Internacional
DYEAR=2006
DGENRE=Country
TTITLE0=John Hardy
TTITLE1=Salt Dog Blues
TTITLE2=Hot Corn cold Corn
TTITLE3=Crying Holy
TTITLE4=Cripple Creek
TTITLE5=Polly Vaughn
TTITLE6=How Can Apoor Manstand
TTITLE7=I'm Rollin On
TTITLE8=Old Age Pension Cheek
TTITLE9=Bank Of Ohio
TTITLE10=Keep Moving
TTITLE11=Little Maggie
TTITLE12=Serves Them Five
TTITLE13=Walk In Jerusalem
EXTD=
EXTT0=
EXTT1=
EXTT2=
EXTT3=
EXTT4=
EXTT5=
EXTT6=
EXTT7=
EXTT8=
EXTT9=
EXTT10=
EXTT11=
EXTT12=
EXTT13=
PLAYORDER=
